<svg xmlns="http://www.w3.org/2000/svg" viewBox="0 0 245 245"><path d="M0 0h5v5H0V0zm5 0h5v5H5V0zm5 0h5v5h-5V0zm5 0h5v5h-5V0zm5 0h5v5h-5V0zm5 0h5v5h-5V0zm5 0h5v5h-5V0zm25 0h5v5h-5V0zm5 0h5v5h-5V0zm10 0h5v5h-5V0zm5 0h5v5h-5V0zm25 0h5v5h-5V0zm15 0h5v5h-5V0zm10 0h5v5h-5V0zm15 0h5v5h-5V0zm5 0h5v5h-5V0zm5 0h5v5h-5V0zm15 0h5v5h-5V0zm5 0h5v5h-5V0zm5 0h5v5h-5V0zm5 0h5v5h-5V0zm5 0h5v5h-5V0zm15 0h5v5h-5V0zm10 0h5v5h-5V0zm5 0h5v5h-5V0zm5 0h5v5h-5V0zm5 0h5v5h-5V0zm5 0h5v5h-5V0zm5 0h5v5h-5V0zm5 0h5v5h-5V0zM0 5h5v5H0V5zm30 0h5v5h-5V5zm10 0h5v5h-5V5zm5 0h5v5h-5V5zm5 0h5v5h-5V5zm5 0h5v5h-5V5zm5 0h5v5h-5V5zm30 0h5v5h-5V5zm15 0h5v5h-5V5zm5 0h5v5h-5V5zm5 0h5v5h-5V5zm5 0h5v5h-5V5zm25 0h5v5h-5V5zm5 0h5v5h-5V5zm25 0h5v5h-5V5zm15 0h5v5h-5V5zm5 0h5v5h-5V5zm5 0h5v5h-5V5zm10 0h5v5h-5V5zm30 0h5v5h-5V5zM0 10h5v5H0v-5zm10 0h5v5h-5v-5zm5 0h5v5h-5v-5zm5 0h5v5h-5v-5zm10 0h5v5h-5v-5zm25 0h5v5h-5v-5zm5 0h5v5h-5v-5zm5 0h5v5h-5v-5zm10 0h5v5h-5v-5zm5 0h5v5h-5v-5zm10 0h5v5h-5v-5zm25 0h5v5h-5v-5zm10 0h5v5h-5v-5zm5 0h5v5h-5v-5zm5 0h5v5h-5v-5zm5 0h5v5h-5v-5zm10 0h5v5h-5v-5zm5 0h5v5h-5v-5zm15 0h5v5h-5v-5zm5 0h5v5h-5v-5zm20 0h5v5h-5v-5zm5 0h5v5h-5v-5zm10 0h5v5h-5v-5zm10 0h5v5h-5v-5zm5 0h5v5h-5v-5zm5 0h5v5h-5v-5zm10 0h5v5h-5v-5zM0 15h5v5H0v-5zm10 0h5v5h-5v-5zm5 0h5v5h-5v-5zm5 0h5v5h-5v-5zm10 0h5v5h-5v-5zm10 0h5v5h-5v-5zm5 0h5v5h-5v-5zm10 0h5v5h-5v-5zm5 0h5v5h-5v-5zm15 0h5v5h-5v-5zm15 0h5v5h-5v-5zm20 0h5v5h-5v-5zm10 0h5v5h-5v-5zm15 0h5v5h-5v-5zm15 0h5v5h-5v-5zm10 0h5v5h-5v-5zm20 0h5v5h-5v-5zm15 0h5v5h-5v-5zm15 0h5v5h-5v-5zm10 0h5v5h-5v-5zm5 0h5v5h-5v-5zm5 0h5v5h-5v-5zm10 0h5v5h-5v-5zM0 20h5v5H0v-5zm10 0h5v5h-5v-5zm5 0h5v5h-5v-5zm5 0h5v5h-5v-5zm10 0h5v5h-5v-5zm20 0h5v5h-5v-5zm10 0h5v5h-5v-5zm5 0h5v5h-5v-5zm15 0h5v5h-5v-5zm5 0h5v5h-5v-5zm5 0h5v5h-5v-5zm5 0h5v5h-5v-5zm15 0h5v5h-5v-5zm5 0h5v5h-5v-5zm5 0h5v5h-5v-5zm5 0h5v5h-5v-5zm5 0h5v5h-5v-5zm20 0h5v5h-5v-5zm15 0h5v5h-5v-5zm5 0h5v5h-5v-5zm10 0h5v5h-5v-5zm30 0h5v5h-5v-5zm10 0h5v5h-5v-5zm5 0h5v5h-5v-5zm5 0h5v5h-5v-5zm10 0h5v5h-5v-5zM0 25h5v5H0v-5zm30 0h5v5h-5v-5zm10 0h5v5h-5v-5zm5 0h5v5h-5v-5zm5 0h5v5h-5v-5zm5 0h5v5h-5v-5zm5 0h5v5h-5v-5zm5 0h5v5h-5v-5zm10 0h5v5h-5v-5zm5 0h5v5h-5v-5zm10 0h5v5h-5v-5zm5 0h5v5h-5v-5zm10 0h5v5h-5v-5zm5 0h5v5h-5v-5zm20 0h5v5h-5v-5zm5 0h5v5h-5v-5zm5 0h5v5h-5v-5zm5 0h5v5h-5v-5zm10 0h5v5h-5v-5zm5 0h5v5h-5v-5zm5 0h5v5h-5v-5zm15 0h5v5h-5v-5zm10 0h5v5h-5v-5zm20 0h5v5h-5v-5zm30 0h5v5h-5v-5zM0 30h5v5H0v-5zm5 0h5v5H5v-5zm5 0h5v5h-5v-5zm5 0h5v5h-5v-5zm5 0h5v5h-5v-5zm5 0h5v5h-5v-5zm5 0h5v5h-5v-5zm10 0h5v5h-5v-5zm10 0h5v5h-5v-5zm10 0h5v5h-5v-5zm10 0h5v5h-5v-5zm10 0h5v5h-5v-5zm10 0h5v5h-5v-5zm10 0h5v5h-5v-5zm10 0h5v5h-5v-5zm10 0h5v5h-5v-5zm10 0h5v5h-5v-5zm10 0h5v5h-5v-5zm10 0h5v5h-5v-5zm10 0h5v5h-5v-5zm10 0h5v5h-5v-5zm10 0h5v5h-5v-5zm10 0h5v5h-5v-5zm10 0h5v5h-5v-5zm10 0h5v5h-5v-5zm5 0h5v5h-5v-5zm5 0h5v5h-5v-5zm5 0h5v5h-5v-5zm5 0h5v5h-5v-5zm5 0h5v5h-5v-5zm5 0h5v5h-5v-5zM55 35h5v5h-5v-5zm15 0h5v5h-5v-5zm10 0h5v5h-5v-5zm10 0h5v5h-5v-5zm5 0h5v5h-5v-5zm5 0h5v5h-5v-5zm5 0h5v5h-5v-5zm5 0h5v5h-5v-5zm20 0h5v5h-5v-5zm5 0h5v5h-5v-5zm10 0h5v5h-5v-5zm5 0h5v5h-5v-5zm15 0h5v5h-5v-5zm15 0h5v5h-5v-5zm5 0h5v5h-5v-5zm10 0h5v5h-5v-5zm5 0h5v5h-5v-5zM0 40h5v5H0v-5zm5 0h5v5H5v-5zm5 0h5v5h-5v-5zm5 0h5v5h-5v-5zm5 0h5v5h-5v-5zm10 0h5v5h-5v-5zm5 0h5v5h-5v-5zm5 0h5v5h-5v-5zm10 0h5v5h-5v-5zm10 0h5v5h-5v-5zm15 0h5v5h-5v-5zm5 0h5v5h-5v-5zm10 0h5v5h-5v-5zm5 0h5v5h-5v-5zm5 0h5v5h-5v-5zm10 0h5v5h-5v-5zm5 0h5v5h-5v-5zm5 0h5v5h-5v-5zm5 0h5v5h-5v-5zm5 0h5v5h-5v-5zm10 0h5v5h-5v-5zm5 0h5v5h-5v-5zm5 0h5v5h-5v-5zm5 0h5v5h-5v-5zm10 0h5v5h-5v-5zm15 0h5v5h-5v-5zm5 0h5v5h-5v-5zm5 0h5v5h-5v-5zm10 0h5v5h-5v-5zm5 0h5v5h-5v-5zm10 0h5v5h-5v-5zm10 0h5v5h-5v-5zm10 0h5v5h-5v-5zM0 45h5v5H0v-5zm10 0h5v5h-5v-5zm5 0h5v5h-5v-5zm5 0h5v5h-5v-5zm20 0h5v5h-5v-5zm5 0h5v5h-5v-5zm15 0h5v5h-5v-5zm5 0h5v5h-5v-5zm10 0h5v5h-5v-5zm5 0h5v5h-5v-5zm5 0h5v5h-5v-5zm20 0h5v5h-5v-5zm10 0h5v5h-5v-5zm10 0h5v5h-5v-5zm5 0h5v5h-5v-5zm10 0h5v5h-5v-5zm10 0h5v5h-5v-5zm15 0h5v5h-5v-5zm25 0h5v5h-5v-5zm5 0h5v5h-5v-5zm15 0h5v5h-5v-5zm5 0h5v5h-5v-5zm15 0h5v5h-5v-5zm5 0h5v5h-5v-5zm5 0h5v5h-5v-5zM0 50h5v5H0v-5zm15 0h5v5h-5v-5zm10 0h5v5h-5v-5zm5 0h5v5h-5v-5zm15 0h5v5h-5v-5zm10 0h5v5h-5v-5zm10 0h5v5h-5v-5zm5 0h5v5h-5v-5zm5 0h5v5h-5v-5zm5 0h5v5h-5v-5zm10 0h5v5h-5v-5zm5 0h5v5h-5v-5zm5 0h5v5h-5v-5zm5 0h5v5h-5v-5zm5 0h5v5h-5v-5zm5 0h5v5h-5v-5zm5 0h5v5h-5v-5zm10 0h5v5h-5v-5zm5 0h5v5h-5v-5zm10 0h5v5h-5v-5zm5 0h5v5h-5v-5zm5 0h5v5h-5v-5zm5 0h5v5h-5v-5zm5 0h5v5h-5v-5zm5 0h5v5h-5v-5zm5 0h5v5h-5v-5zm5 0h5v5h-5v-5zm5 0h5v5h-5v-5zm5 0h5v5h-5v-5zm10 0h5v5h-5v-5zm10 0h5v5h-5v-5zm5 0h5v5h-5v-5zm5 0h5v5h-5v-5zM20 55h5v5h-5v-5zm5 0h5v5h-5v-5zm15 0h5v5h-5v-5zm5 0h5v5h-5v-5zm5 0h5v5h-5v-5zm20 0h5v5h-5v-5zm5 0h5v5h-5v-5zm5 0h5v5h-5v-5zm10 0h5v5h-5v-5zm10 0h5v5h-5v-5zm5 0h5v5h-5v-5zm25 0h5v5h-5v-5zm5 0h5v5h-5v-5zm15 0h5v5h-5v-5zm10 0h5v5h-5v-5zm5 0h5v5h-5v-5zm5 0h5v5h-5v-5zm20 0h5v5h-5v-5zm20 0h5v5h-5v-5zm10 0h5v5h-5v-5zm10 0h5v5h-5v-5zm5 0h5v5h-5v-5zM5 60h5v5H5v-5zm10 0h5v5h-5v-5zm5 0h5v5h-5v-5zm10 0h5v5h-5v-5zm5 0h5v5h-5v-5zm5 0h5v5h-5v-5zm10 0h5v5h-5v-5zm15 0h5v5h-5v-5zm5 0h5v5h-5v-5zm50 0h5v5h-5v-5zm5 0h5v5h-5v-5zm25 0h5v5h-5v-5zm5 0h5v5h-5v-5zm15 0h5v5h-5v-5zm10 0h5v5h-5v-5zm10 0h5v5h-5v-5zm5 0h5v5h-5v-5zm15 0h5v5h-5v-5zm5 0h5v5h-5v-5zm10 0h5v5h-5v-5zm5 0h5v5h-5v-5zM10 65h5v5h-5v-5zm25 0h5v5h-5v-5zm40 0h5v5h-5v-5zm20 0h5v5h-5v-5zm20 0h5v5h-5v-5zm5 0h5v5h-5v-5zm5 0h5v5h-5v-5zm5 0h5v5h-5v-5zm20 0h5v5h-5v-5zm5 0h5v5h-5v-5zm5 0h5v5h-5v-5zm15 0h5v5h-5v-5zm10 0h5v5h-5v-5zm10 0h5v5h-5v-5zm10 0h5v5h-5v-5zm5 0h5v5h-5v-5zm5 0h5v5h-5v-5zm5 0h5v5h-5v-5zm20 0h5v5h-5v-5zM20 70h5v5h-5v-5zm10 0h5v5h-5v-5zm5 0h5v5h-5v-5zm20 0h5v5h-5v-5zm5 0h5v5h-5v-5zm5 0h5v5h-5v-5zm5 0h5v5h-5v-5zm20 0h5v5h-5v-5zm5 0h5v5h-5v-5zm5 0h5v5h-5v-5zm10 0h5v5h-5v-5zm5 0h5v5h-5v-5zm5 0h5v5h-5v-5zm20 0h5v5h-5v-5zm15 0h5v5h-5v-5zm10 0h5v5h-5v-5zm5 0h5v5h-5v-5zm15 0h5v5h-5v-5zm10 0h5v5h-5v-5zm20 0h5v5h-5v-5zm15 0h5v5h-5v-5zm10 0h5v5h-5v-5zM0 75h5v5H0v-5zm5 0h5v5H5v-5zm5 0h5v5h-5v-5zm5 0h5v5h-5v-5zm10 0h5v5h-5v-5zm25 0h5v5h-5v-5zm15 0h5v5h-5v-5zm10 0h5v5h-5v-5zm15 0h5v5h-5v-5zm5 0h5v5h-5v-5zm10 0h5v5h-5v-5zm10 0h5v5h-5v-5zm5 0h5v5h-5v-5zm5 0h5v5h-5v-5zm5 0h5v5h-5v-5zm5 0h5v5h-5v-5zm25 0h5v5h-5v-5zm25 0h5v5h-5v-5zm20 0h5v5h-5v-5zm5 0h5v5h-5v-5zm5 0h5v5h-5v-5zm5 0h5v5h-5v-5zm5 0h5v5h-5v-5zm10 0h5v5h-5v-5zm5 0h5v5h-5v-5zM0 80h5v5H0v-5zm20 0h5v5h-5v-5zm10 0h5v5h-5v-5zm5 0h5v5h-5v-5zm5 0h5v5h-5v-5zm10 0h5v5h-5v-5zm5 0h5v5h-5v-5zm5 0h5v5h-5v-5zm15 0h5v5h-5v-5zm5 0h5v5h-5v-5zm15 0h5v5h-5v-5zm5 0h5v5h-5v-5zm5 0h5v5h-5v-5zm15 0h5v5h-5v-5zm20 0h5v5h-5v-5zm10 0h5v5h-5v-5zm5 0h5v5h-5v-5zm5 0h5v5h-5v-5zm5 0h5v5h-5v-5zm15 0h5v5h-5v-5zm15 0h5v5h-5v-5zm5 0h5v5h-5v-5zm5 0h5v5h-5v-5zm5 0h5v5h-5v-5zm10 0h5v5h-5v-5zm10 0h5v5h-5v-5zm5 0h5v5h-5v-5zm5 0h5v5h-5v-5zM0 85h5v5H0v-5zm15 0h5v5h-5v-5zm5 0h5v5h-5v-5zm15 0h5v5h-5v-5zm5 0h5v5h-5v-5zm5 0h5v5h-5v-5zm5 0h5v5h-5v-5zm5 0h5v5h-5v-5zm5 0h5v5h-5v-5zm5 0h5v5h-5v-5zm5 0h5v5h-5v-5zm5 0h5v5h-5v-5zm10 0h5v5h-5v-5zm15 0h5v5h-5v-5zm5 0h5v5h-5v-5zm5 0h5v5h-5v-5zm5 0h5v5h-5v-5zm5 0h5v5h-5v-5zm10 0h5v5h-5v-5zm10 0h5v5h-5v-5zm10 0h5v5h-5v-5zm20 0h5v5h-5v-5zm5 0h5v5h-5v-5zm20 0h5v5h-5v-5zm5 0h5v5h-5v-5zm10 0h5v5h-5v-5zm5 0h5v5h-5v-5zm10 0h5v5h-5v-5zm5 0h5v5h-5v-5zm5 0h5v5h-5v-5zM0 90h5v5H0v-5zm5 0h5v5H5v-5zm5 0h5v5h-5v-5zm10 0h5v5h-5v-5zm10 0h5v5h-5v-5zm10 0h5v5h-5v-5zm5 0h5v5h-5v-5zm5 0h5v5h-5v-5zm5 0h5v5h-5v-5zm35 0h5v5h-5v-5zm5 0h5v5h-5v-5zm5 0h5v5h-5v-5zm10 0h5v5h-5v-5zm30 0h5v5h-5v-5zm10 0h5v5h-5v-5zm5 0h5v5h-5v-5zm5 0h5v5h-5v-5zm5 0h5v5h-5v-5zm5 0h5v5h-5v-5zm10 0h5v5h-5v-5zm5 0h5v5h-5v-5zm5 0h5v5h-5v-5zm40 0h5v5h-5v-5zM5 95h5v5H5v-5zm5 0h5v5h-5v-5zm25 0h5v5h-5v-5zm5 0h5v5h-5v-5zm5 0h5v5h-5v-5zm15 0h5v5h-5v-5zm5 0h5v5h-5v-5zm25 0h5v5h-5v-5zm5 0h5v5h-5v-5zm10 0h5v5h-5v-5zm5 0h5v5h-5v-5zm15 0h5v5h-5v-5zm5 0h5v5h-5v-5zm10 0h5v5h-5v-5zm35 0h5v5h-5v-5zm10 0h5v5h-5v-5zm15 0h5v5h-5v-5zm5 0h5v5h-5v-5zm5 0h5v5h-5v-5zm5 0h5v5h-5v-5zm15 0h5v5h-5v-5zm5 0h5v5h-5v-5zM0 100h5v5H0v-5zm5 0h5v5H5v-5zm10 0h5v5h-5v-5zm5 0h5v5h-5v-5zm10 0h5v5h-5v-5zm10 0h5v5h-5v-5zm5 0h5v5h-5v-5zm10 0h5v5h-5v-5zm20 0h5v5h-5v-5zm15 0h5v5h-5v-5zm5 0h5v5h-5v-5zm5 0h5v5h-5v-5zm10 0h5v5h-5v-5zm5 0h5v5h-5v-5zm5 0h5v5h-5v-5zm5 0h5v5h-5v-5zm5 0h5v5h-5v-5zm5 0h5v5h-5v-5zm10 0h5v5h-5v-5zm5 0h5v5h-5v-5zm5 0h5v5h-5v-5zm5 0h5v5h-5v-5zm5 0h5v5h-5v-5zm5 0h5v5h-5v-5zm10 0h5v5h-5v-5zm50 0h5v5h-5v-5zM5 105h5v5H5v-5zm5 0h5v5h-5v-5zm5 0h5v5h-5v-5zm5 0h5v5h-5v-5zm15 0h5v5h-5v-5zm15 0h5v5h-5v-5zm15 0h5v5h-5v-5zm15 0h5v5h-5v-5zm10 0h5v5h-5v-5zm5 0h5v5h-5v-5zm20 0h5v5h-5v-5zm5 0h5v5h-5v-5zm30 0h5v5h-5v-5zm5 0h5v5h-5v-5zm15 0h5v5h-5v-5zm5 0h5v5h-5v-5zm10 0h5v5h-5v-5zm10 0h5v5h-5v-5zm10 0h5v5h-5v-5zm20 0h5v5h-5v-5zm15 0h5v5h-5v-5zm-225 5h5v5h-5v-5zm5 0h5v5h-5v-5zm5 0h5v5h-5v-5zm5 0h5v5h-5v-5zm5 0h5v5h-5v-5zm5 0h5v5h-5v-5zm25 0h5v5h-5v-5zm10 0h5v5h-5v-5zm5 0h5v5h-5v-5zm5 0h5v5h-5v-5zm15 0h5v5h-5v-5zm5 0h5v5h-5v-5zm5 0h5v5h-5v-5zm5 0h5v5h-5v-5zm5 0h5v5h-5v-5zm5 0h5v5h-5v-5zm5 0h5v5h-5v-5zm10 0h5v5h-5v-5zm5 0h5v5h-5v-5zm5 0h5v5h-5v-5zm5 0h5v5h-5v-5zm10 0h5v5h-5v-5zm30 0h5v5h-5v-5zm5 0h5v5h-5v-5zm5 0h5v5h-5v-5zm5 0h5v5h-5v-5zm5 0h5v5h-5v-5zm5 0h5v5h-5v-5zm5 0h5v5h-5v-5zm10 0h5v5h-5v-5zM5 115h5v5H5v-5zm10 0h5v5h-5v-5zm5 0h5v5h-5v-5zm20 0h5v5h-5v-5zm5 0h5v5h-5v-5zm35 0h5v5h-5v-5zm10 0h5v5h-5v-5zm5 0h5v5h-5v-5zm5 0h5v5h-5v-5zm10 0h5v5h-5v-5zm20 0h5v5h-5v-5zm5 0h5v5h-5v-5zm5 0h5v5h-5v-5zm10 0h5v5h-5v-5zm10 0h5v5h-5v-5zm10 0h5v5h-5v-5zm10 0h5v5h-5v-5zm5 0h5v5h-5v-5zm10 0h5v5h-5v-5zm5 0h5v5h-5v-5zm20 0h5v5h-5v-5zm5 0h5v5h-5v-5zm5 0h5v5h-5v-5zm5 0h5v5h-5v-5zm5 0h5v5h-5v-5zM0 120h5v5H0v-5zm10 0h5v5h-5v-5zm5 0h5v5h-5v-5zm5 0h5v5h-5v-5zm10 0h5v5h-5v-5zm10 0h5v5h-5v-5zm5 0h5v5h-5v-5zm10 0h5v5h-5v-5zm5 0h5v5h-5v-5zm15 0h5v5h-5v-5zm15 0h5v5h-5v-5zm5 0h5v5h-5v-5zm5 0h5v5h-5v-5zm5 0h5v5h-5v-5zm5 0h5v5h-5v-5zm10 0h5v5h-5v-5zm10 0h5v5h-5v-5zm5 0h5v5h-5v-5zm5 0h5v5h-5v-5zm15 0h5v5h-5v-5zm5 0h5v5h-5v-5zm20 0h5v5h-5v-5zm5 0h5v5h-5v-5zm5 0h5v5h-5v-5zm5 0h5v5h-5v-5zm5 0h5v5h-5v-5zm10 0h5v5h-5v-5zm10 0h5v5h-5v-5zm10 0h5v5h-5v-5zm5 0h5v5h-5v-5zm5 0h5v5h-5v-5zm-230 5h5v5h-5v-5zm5 0h5v5h-5v-5zm5 0h5v5h-5v-5zm20 0h5v5h-5v-5zm5 0h5v5h-5v-5zm20 0h5v5h-5v-5zm5 0h5v5h-5v-5zm5 0h5v5h-5v-5zm10 0h5v5h-5v-5zm15 0h5v5h-5v-5zm5 0h5v5h-5v-5zm5 0h5v5h-5v-5zm20 0h5v5h-5v-5zm20 0h5v5h-5v-5zm25 0h5v5h-5v-5zm5 0h5v5h-5v-5zm10 0h5v5h-5v-5zm5 0h5v5h-5v-5zm5 0h5v5h-5v-5zm20 0h5v5h-5v-5zm5 0h5v5h-5v-5zm5 0h5v5h-5v-5zm5 0h5v5h-5v-5zM0 130h5v5H0v-5zm10 0h5v5h-5v-5zm5 0h5v5h-5v-5zm5 0h5v5h-5v-5zm5 0h5v5h-5v-5zm5 0h5v5h-5v-5zm5 0h5v5h-5v-5zm5 0h5v5h-5v-5zm5 0h5v5h-5v-5zm5 0h5v5h-5v-5zm5 0h5v5h-5v-5zm5 0h5v5h-5v-5zm5 0h5v5h-5v-5zm5 0h5v5h-5v-5zm15 0h5v5h-5v-5zm10 0h5v5h-5v-5zm10 0h5v5h-5v-5zm5 0h5v5h-5v-5zm5 0h5v5h-5v-5zm5 0h5v5h-5v-5zm5 0h5v5h-5v-5zm5 0h5v5h-5v-5zm5 0h5v5h-5v-5zm5 0h5v5h-5v-5zm10 0h5v5h-5v-5zm15 0h5v5h-5v-5zm20 0h5v5h-5v-5zm5 0h5v5h-5v-5zm10 0h5v5h-5v-5zm5 0h5v5h-5v-5zm5 0h5v5h-5v-5zm5 0h5v5h-5v-5zm5 0h5v5h-5v-5zm-210 5h5v5h-5v-5zm10 0h5v5h-5v-5zm5 0h5v5h-5v-5zm10 0h5v5h-5v-5zm5 0h5v5h-5v-5zm20 0h5v5h-5v-5zm10 0h5v5h-5v-5zm10 0h5v5h-5v-5zm15 0h5v5h-5v-5zm15 0h5v5h-5v-5zm5 0h5v5h-5v-5zm10 0h5v5h-5v-5zm5 0h5v5h-5v-5zm15 0h5v5h-5v-5zm5 0h5v5h-5v-5zm10 0h5v5h-5v-5zm5 0h5v5h-5v-5zm5 0h5v5h-5v-5zm10 0h5v5h-5v-5zm5 0h5v5h-5v-5zm10 0h5v5h-5v-5zm10 0h5v5h-5v-5zm5 0h5v5h-5v-5zm10 0h5v5h-5v-5zm10 0h5v5h-5v-5zm5 0h5v5h-5v-5zM0 140h5v5H0v-5zm5 0h5v5H5v-5zm5 0h5v5h-5v-5zm10 0h5v5h-5v-5zm5 0h5v5h-5v-5zm5 0h5v5h-5v-5zm10 0h5v5h-5v-5zm10 0h5v5h-5v-5zm10 0h5v5h-5v-5zm5 0h5v5h-5v-5zm5 0h5v5h-5v-5zm15 0h5v5h-5v-5zm10 0h5v5h-5v-5zm5 0h5v5h-5v-5zm5 0h5v5h-5v-5zm10 0h5v5h-5v-5zm30 0h5v5h-5v-5zm5 0h5v5h-5v-5zm5 0h5v5h-5v-5zm5 0h5v5h-5v-5zm5 0h5v5h-5v-5zm5 0h5v5h-5v-5zm5 0h5v5h-5v-5zm5 0h5v5h-5v-5zm5 0h5v5h-5v-5zm15 0h5v5h-5v-5zm10 0h5v5h-5v-5zm5 0h5v5h-5v-5zm5 0h5v5h-5v-5zM5 145h5v5H5v-5zm30 0h5v5h-5v-5zm10 0h5v5h-5v-5zm15 0h5v5h-5v-5zm15 0h5v5h-5v-5zm15 0h5v5h-5v-5zm5 0h5v5h-5v-5zm5 0h5v5h-5v-5zm5 0h5v5h-5v-5zm15 0h5v5h-5v-5zm5 0h5v5h-5v-5zm25 0h5v5h-5v-5zm5 0h5v5h-5v-5zm10 0h5v5h-5v-5zm5 0h5v5h-5v-5zm15 0h5v5h-5v-5zm10 0h5v5h-5v-5zm5 0h5v5h-5v-5zm10 0h5v5h-5v-5zm20 0h5v5h-5v-5zm5 0h5v5h-5v-5zm5 0h5v5h-5v-5zM5 150h5v5H5v-5zm5 0h5v5h-5v-5zm10 0h5v5h-5v-5zm5 0h5v5h-5v-5zm5 0h5v5h-5v-5zm5 0h5v5h-5v-5zm35 0h5v5h-5v-5zm30 0h5v5h-5v-5zm15 0h5v5h-5v-5zm25 0h5v5h-5v-5zm5 0h5v5h-5v-5zm10 0h5v5h-5v-5zm10 0h5v5h-5v-5zm15 0h5v5h-5v-5zm20 0h5v5h-5v-5zm15 0h5v5h-5v-5zm5 0h5v5h-5v-5zm5 0h5v5h-5v-5zm10 0h5v5h-5v-5zM5 155h5v5H5v-5zm5 0h5v5h-5v-5zm5 0h5v5h-5v-5zm20 0h5v5h-5v-5zm20 0h5v5h-5v-5zm15 0h5v5h-5v-5zm5 0h5v5h-5v-5zm25 0h5v5h-5v-5zm5 0h5v5h-5v-5zm5 0h5v5h-5v-5zm5 0h5v5h-5v-5zm5 0h5v5h-5v-5zm10 0h5v5h-5v-5zm5 0h5v5h-5v-5zm5 0h5v5h-5v-5zm10 0h5v5h-5v-5zm10 0h5v5h-5v-5zm5 0h5v5h-5v-5zm15 0h5v5h-5v-5zm10 0h5v5h-5v-5zm5 0h5v5h-5v-5zm20 0h5v5h-5v-5zm10 0h5v5h-5v-5zm10 0h5v5h-5v-5zM0 160h5v5H0v-5zm10 0h5v5h-5v-5zm5 0h5v5h-5v-5zm10 0h5v5h-5v-5zm5 0h5v5h-5v-5zm15 0h5v5h-5v-5zm5 0h5v5h-5v-5zm10 0h5v5h-5v-5zm20 0h5v5h-5v-5zm10 0h5v5h-5v-5zm5 0h5v5h-5v-5zm5 0h5v5h-5v-5zm5 0h5v5h-5v-5zm15 0h5v5h-5v-5zm15 0h5v5h-5v-5zm10 0h5v5h-5v-5zm5 0h5v5h-5v-5zm35 0h5v5h-5v-5zm5 0h5v5h-5v-5zm5 0h5v5h-5v-5zm35 0h5v5h-5v-5zm5 0h5v5h-5v-5zM0 165h5v5H0v-5zm20 0h5v5h-5v-5zm15 0h5v5h-5v-5zm5 0h5v5h-5v-5zm10 0h5v5h-5v-5zm5 0h5v5h-5v-5zm5 0h5v5h-5v-5zm5 0h5v5h-5v-5zm5 0h5v5h-5v-5zm5 0h5v5h-5v-5zm5 0h5v5h-5v-5zm5 0h5v5h-5v-5zm20 0h5v5h-5v-5zm10 0h5v5h-5v-5zm15 0h5v5h-5v-5zm5 0h5v5h-5v-5zm5 0h5v5h-5v-5zm10 0h5v5h-5v-5zm10 0h5v5h-5v-5zm5 0h5v5h-5v-5zm5 0h5v5h-5v-5zm35 0h5v5h-5v-5zm15 0h5v5h-5v-5zm10 0h5v5h-5v-5zm5 0h5v5h-5v-5zM0 170h5v5H0v-5zm10 0h5v5h-5v-5zm5 0h5v5h-5v-5zm10 0h5v5h-5v-5zm5 0h5v5h-5v-5zm10 0h5v5h-5v-5zm5 0h5v5h-5v-5zm5 0h5v5h-5v-5zm5 0h5v5h-5v-5zm35 0h5v5h-5v-5zm10 0h5v5h-5v-5zm15 0h5v5h-5v-5zm20 0h5v5h-5v-5zm5 0h5v5h-5v-5zm5 0h5v5h-5v-5zm5 0h5v5h-5v-5zm5 0h5v5h-5v-5zm15 0h5v5h-5v-5zm15 0h5v5h-5v-5zm5 0h5v5h-5v-5zm5 0h5v5h-5v-5zm5 0h5v5h-5v-5zm5 0h5v5h-5v-5zm5 0h5v5h-5v-5zm10 0h5v5h-5v-5zM0 175h5v5H0v-5zm10 0h5v5h-5v-5zm10 0h5v5h-5v-5zm5 0h5v5h-5v-5zm20 0h5v5h-5v-5zm20 0h5v5h-5v-5zm10 0h5v5h-5v-5zm10 0h5v5h-5v-5zm5 0h5v5h-5v-5zm5 0h5v5h-5v-5zm10 0h5v5h-5v-5zm15 0h5v5h-5v-5zm15 0h5v5h-5v-5zm5 0h5v5h-5v-5zm5 0h5v5h-5v-5zm5 0h5v5h-5v-5zm15 0h5v5h-5v-5zm5 0h5v5h-5v-5zm5 0h5v5h-5v-5zm5 0h5v5h-5v-5zm5 0h5v5h-5v-5zm5 0h5v5h-5v-5zm5 0h5v5h-5v-5zm15 0h5v5h-5v-5zm15 0h5v5h-5v-5zm10 0h5v5h-5v-5zM0 180h5v5H0v-5zm5 0h5v5H5v-5zm5 0h5v5h-5v-5zm5 0h5v5h-5v-5zm5 0h5v5h-5v-5zm10 0h5v5h-5v-5zm5 0h5v5h-5v-5zm5 0h5v5h-5v-5zm20 0h5v5h-5v-5zm15 0h5v5h-5v-5zm15 0h5v5h-5v-5zm5 0h5v5h-5v-5zm10 0h5v5h-5v-5zm10 0h5v5h-5v-5zm5 0h5v5h-5v-5zm5 0h5v5h-5v-5zm5 0h5v5h-5v-5zm10 0h5v5h-5v-5zm5 0h5v5h-5v-5zm5 0h5v5h-5v-5zm5 0h5v5h-5v-5zm10 0h5v5h-5v-5zm5 0h5v5h-5v-5zm5 0h5v5h-5v-5zm5 0h5v5h-5v-5zm15 0h5v5h-5v-5zm5 0h5v5h-5v-5zm10 0h5v5h-5v-5zm5 0h5v5h-5v-5zm15 0h5v5h-5v-5zm5 0h5v5h-5v-5zm5 0h5v5h-5v-5zM5 185h5v5H5v-5zm35 0h5v5h-5v-5zm15 0h5v5h-5v-5zm10 0h5v5h-5v-5zm15 0h5v5h-5v-5zm5 0h5v5h-5v-5zm5 0h5v5h-5v-5zm5 0h5v5h-5v-5zm30 0h5v5h-5v-5zm10 0h5v5h-5v-5zm15 0h5v5h-5v-5zm10 0h5v5h-5v-5zm5 0h5v5h-5v-5zm5 0h5v5h-5v-5zm5 0h5v5h-5v-5zm20 0h5v5h-5v-5zm5 0h5v5h-5v-5zm20 0h5v5h-5v-5zm5 0h5v5h-5v-5zm5 0h5v5h-5v-5zm5 0h5v5h-5v-5zm5 0h5v5h-5v-5zM5 190h5v5H5v-5zm20 0h5v5h-5v-5zm5 0h5v5h-5v-5zm5 0h5v5h-5v-5zm10 0h5v5h-5v-5zm25 0h5v5h-5v-5zm5 0h5v5h-5v-5zm5 0h5v5h-5v-5zm10 0h5v5h-5v-5zm5 0h5v5h-5v-5zm5 0h5v5h-5v-5zm15 0h5v5h-5v-5zm5 0h5v5h-5v-5zm15 0h5v5h-5v-5zm15 0h5v5h-5v-5zm10 0h5v5h-5v-5zm5 0h5v5h-5v-5zm10 0h5v5h-5v-5zm10 0h5v5h-5v-5zm5 0h5v5h-5v-5zm20 0h5v5h-5v-5zm15 0h5v5h-5v-5zm5 0h5v5h-5v-5zM5 195h5v5H5v-5zm5 0h5v5h-5v-5zm5 0h5v5h-5v-5zm20 0h5v5h-5v-5zm20 0h5v5h-5v-5zm15 0h5v5h-5v-5zm10 0h5v5h-5v-5zm15 0h5v5h-5v-5zm10 0h5v5h-5v-5zm5 0h5v5h-5v-5zm25 0h5v5h-5v-5zm5 0h5v5h-5v-5zm5 0h5v5h-5v-5zm10 0h5v5h-5v-5zm10 0h5v5h-5v-5zm35 0h5v5h-5v-5zm25 0h5v5h-5v-5zm10 0h5v5h-5v-5zm5 0h5v5h-5v-5zM0 200h5v5H0v-5zm5 0h5v5H5v-5zm5 0h5v5h-5v-5zm20 0h5v5h-5v-5zm15 0h5v5h-5v-5zm10 0h5v5h-5v-5zm5 0h5v5h-5v-5zm20 0h5v5h-5v-5zm15 0h5v5h-5v-5zm5 0h5v5h-5v-5zm10 0h5v5h-5v-5zm5 0h5v5h-5v-5zm5 0h5v5h-5v-5zm5 0h5v5h-5v-5zm5 0h5v5h-5v-5zm5 0h5v5h-5v-5zm10 0h5v5h-5v-5zm5 0h5v5h-5v-5zm30 0h5v5h-5v-5zm20 0h5v5h-5v-5zm5 0h5v5h-5v-5zm5 0h5v5h-5v-5zm5 0h5v5h-5v-5zm5 0h5v5h-5v-5zm10 0h5v5h-5v-5zm5 0h5v5h-5v-5zm5 0h5v5h-5v-5zm-200 5h5v5h-5v-5zm5 0h5v5h-5v-5zm5 0h5v5h-5v-5zm10 0h5v5h-5v-5zm5 0h5v5h-5v-5zm5 0h5v5h-5v-5zm5 0h5v5h-5v-5zm10 0h5v5h-5v-5zm15 0h5v5h-5v-5zm5 0h5v5h-5v-5zm5 0h5v5h-5v-5zm20 0h5v5h-5v-5zm5 0h5v5h-5v-5zm20 0h5v5h-5v-5zm5 0h5v5h-5v-5zm10 0h5v5h-5v-5zm5 0h5v5h-5v-5zm15 0h5v5h-5v-5zm5 0h5v5h-5v-5zm5 0h5v5h-5v-5zm20 0h5v5h-5v-5zm15 0h5v5h-5v-5zm5 0h5v5h-5v-5zM0 210h5v5H0v-5zm5 0h5v5H5v-5zm5 0h5v5h-5v-5zm5 0h5v5h-5v-5zm5 0h5v5h-5v-5zm5 0h5v5h-5v-5zm5 0h5v5h-5v-5zm10 0h5v5h-5v-5zm5 0h5v5h-5v-5zm5 0h5v5h-5v-5zm5 0h5v5h-5v-5zm5 0h5v5h-5v-5zm5 0h5v5h-5v-5zm5 0h5v5h-5v-5zm10 0h5v5h-5v-5zm5 0h5v5h-5v-5zm15 0h5v5h-5v-5zm10 0h5v5h-5v-5zm10 0h5v5h-5v-5zm10 0h5v5h-5v-5zm5 0h5v5h-5v-5zm15 0h5v5h-5v-5zm5 0h5v5h-5v-5zm10 0h5v5h-5v-5zm5 0h5v5h-5v-5zm10 0h5v5h-5v-5zm5 0h5v5h-5v-5zm15 0h5v5h-5v-5zm10 0h5v5h-5v-5zm10 0h5v5h-5v-5zM0 215h5v5H0v-5zm30 0h5v5h-5v-5zm25 0h5v5h-5v-5zm15 0h5v5h-5v-5zm35 0h5v5h-5v-5zm5 0h5v5h-5v-5zm20 0h5v5h-5v-5zm10 0h5v5h-5v-5zm5 0h5v5h-5v-5zm5 0h5v5h-5v-5zm5 0h5v5h-5v-5zm10 0h5v5h-5v-5zm15 0h5v5h-5v-5zm10 0h5v5h-5v-5zm10 0h5v5h-5v-5zm20 0h5v5h-5v-5zm5 0h5v5h-5v-5zm10 0h5v5h-5v-5zM0 220h5v5H0v-5zm10 0h5v5h-5v-5zm5 0h5v5h-5v-5zm5 0h5v5h-5v-5zm10 0h5v5h-5v-5zm10 0h5v5h-5v-5zm10 0h5v5h-5v-5zm5 0h5v5h-5v-5zm5 0h5v5h-5v-5zm5 0h5v5h-5v-5zm5 0h5v5h-5v-5zm15 0h5v5h-5v-5zm15 0h5v5h-5v-5zm10 0h5v5h-5v-5zm5 0h5v5h-5v-5zm5 0h5v5h-5v-5zm5 0h5v5h-5v-5zm5 0h5v5h-5v-5zm5 0h5v5h-5v-5zm10 0h5v5h-5v-5zm5 0h5v5h-5v-5zm25 0h5v5h-5v-5zm5 0h5v5h-5v-5zm5 0h5v5h-5v-5zm5 0h5v5h-5v-5zm5 0h5v5h-5v-5zm5 0h5v5h-5v-5zm5 0h5v5h-5v-5zm5 0h5v5h-5v-5zm5 0h5v5h-5v-5zm5 0h5v5h-5v-5zm5 0h5v5h-5v-5zm10 0h5v5h-5v-5zm5 0h5v5h-5v-5zM0 225h5v5H0v-5zm10 0h5v5h-5v-5zm5 0h5v5h-5v-5zm5 0h5v5h-5v-5zm10 0h5v5h-5v-5zm10 0h5v5h-5v-5zm5 0h5v5h-5v-5zm15 0h5v5h-5v-5zm15 0h5v5h-5v-5zm15 0h5v5h-5v-5zm10 0h5v5h-5v-5zm5 0h5v5h-5v-5zm10 0h5v5h-5v-5zm5 0h5v5h-5v-5zm30 0h5v5h-5v-5zm5 0h5v5h-5v-5zm5 0h5v5h-5v-5zm5 0h5v5h-5v-5zm10 0h5v5h-5v-5zm10 0h5v5h-5v-5zm25 0h5v5h-5v-5zm15 0h5v5h-5v-5zm15 0h5v5h-5v-5zM0 230h5v5H0v-5zm10 0h5v5h-5v-5zm5 0h5v5h-5v-5zm5 0h5v5h-5v-5zm10 0h5v5h-5v-5zm10 0h5v5h-5v-5zm5 0h5v5h-5v-5zm10 0h5v5h-5v-5zm5 0h5v5h-5v-5zm10 0h5v5h-5v-5zm20 0h5v5h-5v-5zm10 0h5v5h-5v-5zm5 0h5v5h-5v-5zm5 0h5v5h-5v-5zm15 0h5v5h-5v-5zm5 0h5v5h-5v-5zm35 0h5v5h-5v-5zm10 0h5v5h-5v-5zm5 0h5v5h-5v-5zm5 0h5v5h-5v-5zm10 0h5v5h-5v-5zm20 0h5v5h-5v-5zm10 0h5v5h-5v-5zm5 0h5v5h-5v-5zm10 0h5v5h-5v-5zM0 235h5v5H0v-5zm30 0h5v5h-5v-5zm10 0h5v5h-5v-5zm5 0h5v5h-5v-5zm5 0h5v5h-5v-5zm10 0h5v5h-5v-5zm15 0h5v5h-5v-5zm15 0h5v5h-5v-5zm5 0h5v5h-5v-5zm15 0h5v5h-5v-5zm20 0h5v5h-5v-5zm15 0h5v5h-5v-5zm5 0h5v5h-5v-5zm5 0h5v5h-5v-5zm10 0h5v5h-5v-5zm5 0h5v5h-5v-5zm55 0h5v5h-5v-5zm5 0h5v5h-5v-5zM0 240h5v5H0v-5zm5 0h5v5H5v-5zm5 0h5v5h-5v-5zm5 0h5v5h-5v-5zm5 0h5v5h-5v-5zm5 0h5v5h-5v-5zm5 0h5v5h-5v-5zm10 0h5v5h-5v-5zm15 0h5v5h-5v-5zm5 0h5v5h-5v-5zm35 0h5v5h-5v-5zm5 0h5v5h-5v-5zm5 0h5v5h-5v-5zm10 0h5v5h-5v-5zm5 0h5v5h-5v-5zm5 0h5v5h-5v-5zm5 0h5v5h-5v-5zm5 0h5v5h-5v-5zm10 0h5v5h-5v-5zm5 0h5v5h-5v-5zm10 0h5v5h-5v-5zm20 0h5v5h-5v-5zm15 0h5v5h-5v-5zm5 0h5v5h-5v-5zm10 0h5v5h-5v-5zm20 0h5v5h-5v-5zm10 0h5v5h-5v-5z"/></svg>