<svg id="Vrstva_1" xmlns="http://www.w3.org/2000/svg" viewBox="0 0 156.3 29.9"><style>.st0{fill:#004b9c}.st1{fill:#1d1d1c}</style><path class="st0" d="M12.1 3h-11c1.2-1.8 3.2-3 5.5-3s4.3 1.2 5.5 3zM8 13V4.8h4.9c.1.6.2 1.2.2 1.8 0 3.1-2.2 5.7-5.1 6.4M.2 4.8h4.6v8.1C2.1 12.2 0 9.6 0 6.6c0-.6.1-1.2.2-1.8z"/><g><path class="st1" d="M16.2 10.3h3.6l7.5 19.3h-3.6l-1.8-5.1h-7.7l-1.8 5.1H8.8l7.4-19.3zM15 22h5.9L18 13.7h-.1L15 22zM42.5 10.3h4l4.4 6.8 4.6-6.8h3.8l-6.4 9.3 6.9 10h-4.1l-4.8-7.4-4.9 7.4h-4l6.9-10-6.4-9.3zM74.9 10.3h15.7v2.9h-6.2v16.4H81V13.2h-6.1v-2.9zM107.9 10.3h13.9v2.9h-10.5v5.1h9.8v2.8h-9.8v5.7H122v2.9h-14.1V10.3zM145.2 10.3h3.6l7.5 19.3h-3.6l-1.8-5.1h-7.7l-1.8 5.1h-3.5l7.3-19.3zM144.1 22h5.9l-2.9-8.3h-.1l-2.9 8.3z"/></g></svg>